# xmcd CD database file
#
# Track frame offsets:
#	150
#	12350
#	24558
#	37485
#	47330
#	61631
#	74446
#	83956
#	96131
#	112643
#
# Disc length: 1735 seconds
#
# Revision: 0
# Processed by: cddbd v1.5.2PL0 Copyright (c) Steve Scherf et al.
# Submitted via: CDex 1.70beta2
#
DISCID=7706c50a
DTITLE=Merle Haggard - #1 Hits
DYEAR=2006
DGENRE=Country
TTITLE0=Okie From Muskogee
TTITLE1=Workin' Man Blues
TTITLE2=The Fightin' Side Of Me
TTITLE3=Mama Tried
TTITLE4=Branded Man
TTITLE5=Sing Me Back Home
TTITLE6=The Legend Of Bonnie and Clyde
TTITLE7=Everybody's Had The Blues
TTITLE8=Daddy Frank (The Guitar Man)
TTITLE9=I Think I'll Just Stay Here And Drink
EXTD=YEAR: 2006
EXTT0=
EXTT1=
EXTT2=
EXTT3=
EXTT4=
EXTT5=
EXTT6=
EXTT7=
EXTT8=
EXTT9=
PLAYORDER=
